<?xml version="1.0" encoding="UTF-8" standalone="no"?><svg xmlns="http://www.w3.org/2000/svg" xmlns:xlink="http://www.w3.org/1999/xlink" contentStyleType="text/css" height="400px" preserveAspectRatio="none" style="width:997px;height:400px;background:#FFFFFF;" version="1.1" viewBox="0 0 997 400" width="997px" zoomAndPan="magnify"><defs/><g><!--MD5=[84718776d214be480e4c259efcb737fc]
class Main--><g id="elem_Main"><rect codeLine="2" fill="#F1F1F1" height="179.9063" id="Main" rx="2.5" ry="2.5" style="stroke:#181818;stroke-width:0.5;" width="253" x="295.5" y="7"/><ellipse cx="401.25" cy="23" fill="#ADD1B2" rx="11" ry="11" style="stroke:#181818;stroke-width:1.0;"/><path d="M403.7231,29.1431 Q403.1421,29.4419 402.5029,29.5913 Q401.8638,29.7407 401.1582,29.7407 Q398.6514,29.7407 397.3315,28.0889 Q396.0117,26.437 396.0117,23.3159 Q396.0117,20.1865 397.3315,18.5347 Q398.6514,16.8828 401.1582,16.8828 Q401.8638,16.8828 402.5112,17.0322 Q403.1587,17.1816 403.7231,17.4805 L403.7231,20.2031 Q403.0923,19.6221 402.4988,19.3523 Q401.9053,19.0825 401.2744,19.0825 Q399.9297,19.0825 399.2449,20.1492 Q398.5601,21.2158 398.5601,23.3159 Q398.5601,25.4077 399.2449,26.4744 Q399.9297,27.541 401.2744,27.541 Q401.9053,27.541 402.4988,27.2712 Q403.0923,27.0015 403.7231,26.4204 Z " fill="#000000"/><text fill="#000000" font-family="sans-serif" font-size="14" lengthAdjust="spacing" textLength="33" x="421.75" y="28.291">Main</text><line style="stroke:#181818;stroke-width:0.5;" x1="296.5" x2="547.5" y1="39" y2="39"/><rect fill="none" height="6" style="stroke:#C82930;stroke-width:1.0;" width="6" x="303.5" y="49.7441"/><text fill="#000000" font-family="sans-serif" font-size="14" lengthAdjust="spacing" textLength="157" x="315.5" y="56.5352">static scanner: Scanner</text><rect fill="none" height="6" style="stroke:#C82930;stroke-width:1.0;" width="6" x="303.5" y="66.2324"/><text fill="#000000" font-family="sans-serif" font-size="14" lengthAdjust="spacing" textLength="227" x="315.5" y="73.0234">static nutritionDao: INutritionDao</text><line style="stroke:#181818;stroke-width:0.5;" x1="296.5" x2="547.5" y1="79.9766" y2="79.9766"/><ellipse cx="306.5" cy="93.7207" fill="#84BE84" rx="3" ry="3" style="stroke:#038048;stroke-width:1.0;"/><text fill="#000000" font-family="sans-serif" font-size="14" lengthAdjust="spacing" textLength="210" x="315.5" y="97.5117">static main(args: String[]): void</text><rect fill="#F24D5C" height="6" style="stroke:#C82930;stroke-width:1.0;" width="6" x="303.5" y="107.209"/><text fill="#000000" font-family="sans-serif" font-size="14" lengthAdjust="spacing" textLength="174" x="315.5" y="114">static addNutrition(): void</text><rect fill="#F24D5C" height="6" style="stroke:#C82930;stroke-width:1.0;" width="6" x="303.5" y="123.6973"/><text fill="#000000" font-family="sans-serif" font-size="14" lengthAdjust="spacing" textLength="179" x="315.5" y="130.4883">static readNutrition(): void</text><rect fill="#F24D5C" height="6" style="stroke:#C82930;stroke-width:1.0;" width="6" x="303.5" y="140.1855"/><text fill="#000000" font-family="sans-serif" font-size="14" lengthAdjust="spacing" textLength="193" x="315.5" y="146.9766">static listAllNutritions(): void</text><rect fill="#F24D5C" height="6" style="stroke:#C82930;stroke-width:1.0;" width="6" x="303.5" y="156.6738"/><text fill="#000000" font-family="sans-serif" font-size="14" lengthAdjust="spacing" textLength="196" x="315.5" y="163.4648">static updateNutrition(): void</text><rect fill="#F24D5C" height="6" style="stroke:#C82930;stroke-width:1.0;" width="6" x="303.5" y="173.1621"/><text fill="#000000" font-family="sans-serif" font-size="14" lengthAdjust="spacing" textLength="190" x="315.5" y="179.9531">static deleteNutrition(): void</text></g><!--MD5=[b356a762e819e8e4b1f071a008c8efbd]
class Nutrition--><g id="elem_Nutrition"><rect codeLine="13" fill="#F1F1F1" height="146.9297" id="Nutrition" rx="2.5" ry="2.5" style="stroke:#181818;stroke-width:0.5;" width="638" x="7" y="246.91"/><ellipse cx="291.25" cy="262.91" fill="#ADD1B2" rx="11" ry="11" style="stroke:#181818;stroke-width:1.0;"/><path d="M293.7231,269.0531 Q293.1421,269.3519 292.5029,269.5013 Q291.8638,269.6507 291.1582,269.6507 Q288.6514,269.6507 287.3315,267.9989 Q286.0117,266.347 286.0117,263.2259 Q286.0117,260.0965 287.3315,258.4447 Q288.6514,256.7928 291.1582,256.7928 Q291.8638,256.7928 292.5112,256.9422 Q293.1587,257.0916 293.7231,257.3905 L293.7231,260.1131 Q293.0923,259.5321 292.4988,259.2623 Q291.9053,258.9925 291.2744,258.9925 Q289.9297,258.9925 289.2449,260.0592 Q288.5601,261.1258 288.5601,263.2259 Q288.5601,265.3177 289.2449,266.3844 Q289.9297,267.451 291.2744,267.451 Q291.9053,267.451 292.4988,267.1812 Q293.0923,266.9115 293.7231,266.3304 Z " fill="#000000"/><text fill="#000000" font-family="sans-serif" font-size="14" lengthAdjust="spacing" textLength="61" x="311.75" y="268.201">Nutrition</text><line style="stroke:#181818;stroke-width:0.5;" x1="8" x2="644" y1="278.91" y2="278.91"/><rect fill="none" height="6" style="stroke:#C82930;stroke-width:1.0;" width="6" x="15" y="289.6541"/><text fill="#000000" font-family="sans-serif" font-size="14" lengthAdjust="spacing" textLength="39" x="27" y="296.4452">id: int</text><rect fill="none" height="6" style="stroke:#C82930;stroke-width:1.0;" width="6" x="15" y="306.1424"/><text fill="#000000" font-family="sans-serif" font-size="14" lengthAdjust="spacing" textLength="75" x="27" y="312.9334">title: String</text><rect fill="none" height="6" style="stroke:#C82930;stroke-width:1.0;" width="6" x="15" y="322.6307"/><text fill="#000000" font-family="sans-serif" font-size="14" lengthAdjust="spacing" textLength="126" x="27" y="329.4217">description: String</text><rect fill="none" height="6" style="stroke:#C82930;stroke-width:1.0;" width="6" x="15" y="339.119"/><text fill="#000000" font-family="sans-serif" font-size="14" lengthAdjust="spacing" textLength="128" x="27" y="345.91">sourceType: String</text><rect fill="none" height="6" style="stroke:#C82930;stroke-width:1.0;" width="6" x="15" y="355.6073"/><text fill="#000000" font-family="sans-serif" font-size="14" lengthAdjust="spacing" textLength="141" x="27" y="362.3983">sourceDetails: String</text><line style="stroke:#181818;stroke-width:0.5;" x1="8" x2="644" y1="369.3514" y2="369.3514"/><ellipse cx="18" cy="383.0955" fill="#84BE84" rx="3" ry="3" style="stroke:#038048;stroke-width:1.0;"/><text fill="#000000" font-family="sans-serif" font-size="14" lengthAdjust="spacing" textLength="612" x="27" y="386.8866">Nutrition(id: int, title: String, description: String, sourceType: String, sourceDetails: String)</text></g><!--MD5=[3965e83ff9b14e49c0334371e51687bb]
class INutritionDao--><g id="elem_INutritionDao"><rect codeLine="22" fill="#F1F1F1" height="130.4414" id="INutritionDao" rx="2.5" ry="2.5" style="stroke:#181818;stroke-width:0.5;" width="311" x="679.5" y="255.15"/><ellipse cx="784.75" cy="271.15" fill="#B4A7E5" rx="11" ry="11" style="stroke:#181818;stroke-width:1.0;"/><path d="M781.1777,267.4151 L781.1777,265.2569 L788.5571,265.2569 L788.5571,267.4151 L786.0918,267.4151 L786.0918,275.4918 L788.5571,275.4918 L788.5571,277.65 L781.1777,277.65 L781.1777,275.4918 L783.6431,275.4918 L783.6431,267.4151 Z " fill="#000000"/><text fill="#000000" font-family="sans-serif" font-size="14" font-style="italic" lengthAdjust="spacing" textLength="92" x="805.25" y="276.441">INutritionDao</text><line style="stroke:#181818;stroke-width:0.5;" x1="680.5" x2="989.5" y1="287.15" y2="287.15"/><line style="stroke:#181818;stroke-width:0.5;" x1="680.5" x2="989.5" y1="295.15" y2="295.15"/><ellipse cx="690.5" cy="308.8941" fill="#84BE84" rx="3" ry="3" style="stroke:#038048;stroke-width:1.0;"/><text fill="#000000" font-family="sans-serif" font-size="14" lengthAdjust="spacing" textLength="263" x="699.5" y="312.6852">addNutrition(nutrition: Nutrition): void</text><ellipse cx="690.5" cy="325.3824" fill="#84BE84" rx="3" ry="3" style="stroke:#038048;stroke-width:1.0;"/><text fill="#000000" font-family="sans-serif" font-size="14" lengthAdjust="spacing" textLength="201" x="699.5" y="329.1734">getNutrition(id: int): Nutrition</text><ellipse cx="690.5" cy="341.8707" fill="#84BE84" rx="3" ry="3" style="stroke:#038048;stroke-width:1.0;"/><text fill="#000000" font-family="sans-serif" font-size="14" lengthAdjust="spacing" textLength="232" x="699.5" y="345.6617">getAllNutritions(): List&lt;Nutrition&gt;</text><ellipse cx="690.5" cy="358.359" fill="#84BE84" rx="3" ry="3" style="stroke:#038048;stroke-width:1.0;"/><text fill="#000000" font-family="sans-serif" font-size="14" lengthAdjust="spacing" textLength="285" x="699.5" y="362.15">updateNutrition(nutrition: Nutrition): void</text><ellipse cx="690.5" cy="374.8473" fill="#84BE84" rx="3" ry="3" style="stroke:#038048;stroke-width:1.0;"/><text fill="#000000" font-family="sans-serif" font-size="14" lengthAdjust="spacing" textLength="189" x="699.5" y="378.6383">deleteNutrition(id: int): void</text></g><!--MD5=[2b032a09e712352d4d19d59c6199ebec]
class NutritionDaoImp--><g id="elem_NutritionDaoImp"><rect codeLine="30" fill="#F1F1F1" height="130.4414" id="NutritionDaoImp" rx="2.5" ry="2.5" style="stroke:#181818;stroke-width:0.5;" width="311" x="631.5" y="31.74"/><ellipse cx="725.75" cy="47.74" fill="#ADD1B2" rx="11" ry="11" style="stroke:#181818;stroke-width:1.0;"/><path d="M728.2231,53.8831 Q727.6421,54.1819 727.0029,54.3313 Q726.3638,54.4807 725.6582,54.4807 Q723.1514,54.4807 721.8315,52.8289 Q720.5117,51.177 720.5117,48.0559 Q720.5117,44.9265 721.8315,43.2747 Q723.1514,41.6228 725.6582,41.6228 Q726.3638,41.6228 727.0112,41.7722 Q727.6587,41.9216 728.2231,42.2205 L728.2231,44.9431 Q727.5923,44.3621 726.9988,44.0923 Q726.4053,43.8225 725.7744,43.8225 Q724.4297,43.8225 723.7449,44.8892 Q723.0601,45.9558 723.0601,48.0559 Q723.0601,50.1477 723.7449,51.2144 Q724.4297,52.281 725.7744,52.281 Q726.4053,52.281 726.9988,52.0112 Q727.5923,51.7415 728.2231,51.1604 Z " fill="#000000"/><text fill="#000000" font-family="sans-serif" font-size="14" lengthAdjust="spacing" textLength="114" x="746.25" y="53.031">NutritionDaoImp</text><line style="stroke:#181818;stroke-width:0.5;" x1="632.5" x2="941.5" y1="63.74" y2="63.74"/><line style="stroke:#181818;stroke-width:0.5;" x1="632.5" x2="941.5" y1="71.74" y2="71.74"/><ellipse cx="642.5" cy="85.4841" fill="#84BE84" rx="3" ry="3" style="stroke:#038048;stroke-width:1.0;"/><text fill="#000000" font-family="sans-serif" font-size="14" lengthAdjust="spacing" textLength="263" x="651.5" y="89.2752">addNutrition(nutrition: Nutrition): void</text><ellipse cx="642.5" cy="101.9724" fill="#84BE84" rx="3" ry="3" style="stroke:#038048;stroke-width:1.0;"/><text fill="#000000" font-family="sans-serif" font-size="14" lengthAdjust="spacing" textLength="201" x="651.5" y="105.7634">getNutrition(id: int): Nutrition</text><ellipse cx="642.5" cy="118.4607" fill="#84BE84" rx="3" ry="3" style="stroke:#038048;stroke-width:1.0;"/><text fill="#000000" font-family="sans-serif" font-size="14" lengthAdjust="spacing" textLength="232" x="651.5" y="122.2517">getAllNutritions(): List&lt;Nutrition&gt;</text><ellipse cx="642.5" cy="134.949" fill="#84BE84" rx="3" ry="3" style="stroke:#038048;stroke-width:1.0;"/><text fill="#000000" font-family="sans-serif" font-size="14" lengthAdjust="spacing" textLength="285" x="651.5" y="138.74">updateNutrition(nutrition: Nutrition): void</text><ellipse cx="642.5" cy="151.4373" fill="#84BE84" rx="3" ry="3" style="stroke:#038048;stroke-width:1.0;"/><text fill="#000000" font-family="sans-serif" font-size="14" lengthAdjust="spacing" textLength="189" x="651.5" y="155.2283">deleteNutrition(id: int): void</text></g><!--MD5=[8a39e416a7caf9bd18561df9cd68f877]
link Main to Nutrition--><g id="link_Main_Nutrition"><path codeLine="38" d="M383.23,187.38 C375.56,205.06 367.57,223.5 360.07,240.79 " fill="none" id="Main-to-Nutrition" style="stroke:#181818;stroke-width:1.0;"/><polygon fill="#181818" points="358.15,245.22,365.3969,238.5505,360.1368,240.6317,358.0557,235.3716,358.15,245.22" style="stroke:#181818;stroke-width:1.0;"/></g><!--MD5=[5489da932a7d4716d7bdaf3dcbe1a953]
link Main to INutritionDao--><g id="link_Main_INutritionDao"><path codeLine="39" d="M548.72,165.89 C599.62,193.19 658.17,224.57 709,251.82 " fill="none" id="Main-to-INutritionDao" style="stroke:#181818;stroke-width:1.0;"/><polygon fill="#181818" points="713.19,254.07,707.1456,246.2941,708.7826,251.7089,703.3678,253.3459,713.19,254.07" style="stroke:#181818;stroke-width:1.0;"/></g><!--MD5=[d47c10755025d802a1bc31f9a4228e7e]
link NutritionDaoImp to INutritionDao--><g id="link_NutritionDaoImp_INutritionDao"><path codeLine="40" d="M801.01,162.6 C805.85,184.89 811.34,210.23 816.48,233.93 " fill="none" id="NutritionDaoImp-to-INutritionDao" style="stroke:#181818;stroke-width:1.0;stroke-dasharray:7.0,7.0;"/><polygon fill="none" points="823.25,232.15,820.65,253.18,809.57,235.11,823.25,232.15" style="stroke:#181818;stroke-width:1.0;"/></g><!--MD5=[6fc6da3474855f3f86d4e8954f082893]
link NutritionDaoImp to Nutrition--><g id="link_NutritionDaoImp_Nutrition"><path codeLine="41" d="M652.42,162.6 C599.49,188.02 538.35,217.38 483.39,243.78 " fill="none" id="NutritionDaoImp-to-Nutrition" style="stroke:#181818;stroke-width:1.0;"/><polygon fill="#181818" points="479.12,245.83,488.9651,245.5587,483.6314,243.6742,485.5159,238.3405,479.12,245.83" style="stroke:#181818;stroke-width:1.0;"/></g><!--MD5=[03ed1a16d8ce39010eac607954275959]
@startuml

class Main {
    -static scanner: Scanner
    -static nutritionDao: INutritionDao
    +static main(args: String[]): void
    -static addNutrition(): void
    -static readNutrition(): void
    -static listAllNutritions(): void
    -static updateNutrition(): void
    -static deleteNutrition(): void
}

class Nutrition {
    -id: int
    -title: String
    -description: String
    -sourceType: String
    -sourceDetails: String
    +Nutrition(id: int, title: String, description: String, sourceType: String, sourceDetails: String)
}

interface INutritionDao {
    +addNutrition(nutrition: Nutrition): void
    +getNutrition(id: int): Nutrition
    +getAllNutritions(): List<Nutrition>
    +updateNutrition(nutrition: Nutrition): void
    +deleteNutrition(id: int): void
}

class NutritionDaoImp {
    +addNutrition(nutrition: Nutrition): void
    +getNutrition(id: int): Nutrition
    +getAllNutritions(): List<Nutrition>
    +updateNutrition(nutrition: Nutrition): void
    +deleteNutrition(id: int): void
}

Main - -> Nutrition
Main - -> INutritionDao
NutritionDaoImp ..|> INutritionDao
NutritionDaoImp - -> Nutrition

@enduml

PlantUML version 1.2022.7(Mon Aug 22 20:01:30 TRT 2022)
(GPL source distribution)
Java Runtime: Java(TM) SE Runtime Environment
JVM: Java HotSpot(TM) 64-Bit Server VM
Default Encoding: UTF-8
Language: en
Country: TR
--></g></svg>